<svg width="90" height="84" viewBox="0 0 90 84" fill="none" xmlns="http://www.w3.org/2000/svg">
<g clip-path="url(#clip0_22_84)">
<path d="M42.3802 52.4465L35.0191 48.196C34.3387 47.8028 33.4904 48.2932 33.4904 49.0797V76.3678C33.4904 78.2412 34.4889 79.9732 36.1149 80.9143L39.6717 82.9689C41.3021 83.91 43.339 82.7347 43.339 80.8525V54.0946C43.339 53.4141 42.9767 52.7867 42.3846 52.4465H42.3802Z" fill="#EA2427"/>
<path d="M89.3302 11.616V63.952C89.3302 66.1127 88.1726 68.123 86.2992 69.2055L80.7452 72.4177C77.6965 74.1718 73.8879 71.9847 73.8879 68.4544V33.6197L46.4893 49.442C45.4642 50.0341 44.2006 50.0341 43.1755 49.442L15.777 33.6197V68.4544C15.777 71.9803 11.9639 74.1718 8.91959 72.4177L3.36565 69.2055C1.48783 68.123 0.334625 66.1127 0.334625 63.952V11.616C0.334625 9.73817 2.37593 8.55404 4.01074 9.49958L43.1755 32.1042C44.2006 32.6962 45.4642 32.6962 46.4893 32.1042L85.6541 9.49958C87.2889 8.55404 89.3302 9.73817 89.3302 11.616Z" fill="white"/>
<path d="M84.6909 6.58787L79.9013 9.36263L46.4849 28.6401C45.4598 29.2322 44.1961 29.2322 43.1711 28.6401L9.75465 9.36705L4.9651 6.59229C3.90026 5.97813 3.88259 4.44494 4.95184 3.81753L8.64563 1.67018C12.3969 -0.534607 17.0362 -0.55228 20.8007 1.626L43.1711 14.5366C44.1961 15.1287 45.4598 15.1287 46.4849 14.5366L68.8597 1.62158C72.6286 -0.556699 77.2635 -0.539025 81.0147 1.66576L84.7085 3.81311C85.7734 4.44494 85.7601 5.97371 84.6953 6.58787H84.6909Z" fill="#EA2427"/>
<path d="M47.2891 52.4465L54.6501 48.196C55.3306 47.8028 56.1789 48.2932 56.1789 49.0797V76.3678C56.1789 78.2412 55.1803 79.9732 53.5544 80.9143L49.9975 82.9689C48.3671 83.91 46.3303 82.7347 46.3303 80.8525V54.0946C46.3303 53.4141 46.6926 52.7867 47.2846 52.4465H47.2891Z" fill="#EA2427"/>
</g>
<defs>
<clipPath id="clip0_22_84">
<rect width="89" height="83.3003" fill="white" transform="translate(0.3302)"/>
</clipPath>
</defs>
</svg>
